<svg width="150" height="70" viewBox="0 0 153 93" fill="none" xmlns="http://www.w3.org/2000/svg">
<path d="M104.744 69.2245C104.491 68.5892 104.101 67.6758 103.574 66.4845C103.047 65.2932 102.457 64.0225 101.804 62.6724C101.151 61.3222 100.539 60.1044 99.9702 59.019C99.4012 57.9336 98.927 57.2321 98.5476 56.9144C98.0839 56.4908 97.6518 56.2261 97.2514 56.1202C96.8509 56.0143 96.3767 55.9613 95.8287 55.9613C95.1121 55.9613 94.3849 56.2922 93.6472 56.9541C92.9096 57.6159 92.2878 58.4234 91.782 59.3764C91.2761 60.3295 90.96 61.256 90.8335 62.1561C91.4658 63.3739 92.488 64.5387 93.9002 65.6506C95.3123 66.7625 96.8087 67.6494 98.3895 68.3112C99.9702 68.973 101.33 69.304 102.468 69.304C102.847 69.304 103.227 69.2907 103.606 69.2643C103.985 69.2378 104.365 69.2245 104.744 69.2245ZM117.2 42.7775C117.2 39.7595 116.926 36.6224 116.378 33.3662C115.83 30.1099 114.945 27.092 113.723 24.3123C112.5 21.5325 110.888 19.2691 108.886 17.5218C106.883 15.7746 104.428 14.9009 101.519 14.9009C99.3274 14.9009 97.3883 15.4966 95.7022 16.6879C94.0161 17.8792 92.5829 19.4676 91.4026 21.4531C90.2223 23.4386 89.2633 25.6492 88.5256 28.0847C87.7879 30.5203 87.2505 33.0088 86.9133 35.5503C86.576 38.0917 86.4074 40.5008 86.4074 42.7775C86.4074 45.6367 86.6077 48.5223 87.0081 51.4344C87.4086 54.3464 88.1989 57.0467 89.3792 59.5352C90.2223 57.788 91.3183 56.1863 92.6672 54.7303C94.0161 53.2743 95.5547 52.5462 97.283 52.5462C98.8848 52.5462 100.223 52.9831 101.298 53.8567C102.373 54.7303 103.374 55.9348 104.301 57.4703C105.271 58.9528 106.156 60.5015 106.957 62.1164C107.758 63.7313 108.559 65.3594 109.36 67.0008C109.908 66.4184 110.456 65.8624 111.004 65.3329C111.552 64.8035 112.058 64.1946 112.521 63.5063C114.503 60.7001 115.778 57.4438 116.347 53.7375C116.916 50.0313 117.2 46.3779 117.2 42.7775ZM127.001 75.3399C127.001 75.4988 126.906 75.737 126.716 76.0547C126.527 76.3724 126.39 76.5842 126.305 76.6901C125.378 78.1196 124.272 79.258 122.986 80.1052C121.7 80.9523 120.32 81.3759 118.844 81.3759C116.695 81.3759 114.861 80.9523 113.343 80.1052C111.826 79.258 110.477 78.0667 109.297 76.5312C108.116 74.9958 106.915 73.1956 105.693 71.1306C105.06 71.1836 104.438 71.2498 103.827 71.3292C103.216 71.4086 102.594 71.4483 101.962 71.4483C98.7162 71.4483 95.7233 70.7071 92.9833 69.2245C90.2434 67.742 87.8723 65.6771 85.87 63.0297C83.8677 60.3824 82.3186 57.3115 81.2226 53.817C80.1266 50.3225 79.5786 46.5632 79.5786 42.5393C79.5786 38.4094 80.1055 34.531 81.1594 30.9042C82.2132 27.2773 83.7307 24.0872 85.7119 21.334C87.6931 18.5807 90.0642 16.4232 92.8252 14.8612C95.5863 13.2993 98.674 12.5183 102.088 12.5183C106.936 12.5183 111.004 13.842 114.292 16.4893C117.58 19.1367 120.077 22.7371 121.785 27.2905C123.492 31.844 124.345 37.0063 124.345 42.7775C124.345 46.4838 123.797 50.0842 122.701 53.5787C121.605 57.0732 120.046 60.2103 118.022 62.99C115.999 65.7698 113.617 67.9009 110.877 69.3834C112.353 71.6601 113.891 73.553 115.493 75.062C117.095 76.5709 119.118 77.3254 121.563 77.3254C121.816 77.3254 122.248 77.246 122.859 77.0872C123.471 76.9283 124.061 76.7033 124.63 76.4121C125.199 76.1209 125.547 75.8429 125.673 75.5782L125.989 75.1811L126.242 74.8634C126.327 74.7575 126.39 74.7046 126.432 74.7046C126.811 74.7046 127.001 74.9163 127.001 75.3399Z" fill="#F1EDE9"/>
<path d="M60.1432 66.746H59.9219C59.3353 66.746 58.768 66.6842 58.22 66.5606C57.672 66.4371 57.1372 66.2419 56.6155 65.9749C55.783 65.5447 54.8846 64.8674 53.9203 63.9431L52.5978 62.6525C52.1569 62.2223 51.7152 61.802 51.2726 61.3917C50.0818 62.0072 48.8567 62.3149 47.5974 62.3149C45.9973 62.3149 45.1973 61.8936 45.1973 61.0508C45.1973 60.5589 45.4836 60.0978 46.0561 59.6676C46.4794 59.3389 46.9449 59.1128 47.4525 58.9892C47.73 58.9274 47.9996 58.8966 48.2613 58.8966C49.3379 58.8966 50.5051 59.3996 51.7626 60.4056C52.2211 60.1188 52.6707 59.79 53.1115 59.4194C53.5524 59.051 53.9774 58.6616 54.3867 58.2513C52.9324 58.088 51.8215 57.3909 51.0539 56.1599C50.3356 55.0105 49.9764 53.5015 49.9764 51.6329C49.9764 49.376 50.4822 47.0585 51.4939 44.6803C50.498 44.2082 49.6409 43.5309 48.9226 42.6485C48.1217 41.6425 47.7212 40.524 47.7212 39.2929C47.7212 38.0619 48.1621 37.1287 49.0438 36.4934C49.7797 35.9396 50.6702 35.6628 51.7152 35.6628C53.5278 35.6628 55.1288 36.4007 56.5181 37.8766C58.8365 35.9485 61.2208 34.9844 63.6709 34.9844C65.9577 34.9844 67.1012 35.7642 67.1012 37.324C67.1012 37.9814 66.8807 38.7094 66.4399 39.508C66.8491 40.3508 67.0537 41.4174 67.0537 42.708C67.0537 44.5148 66.6612 46.4033 65.8761 48.3733C64.7327 51.2237 63.3117 53.5114 61.6133 55.2366C59.6866 57.2045 57.5631 58.2193 55.2429 58.2811C54.2787 59.3069 53.2819 60.1485 52.2527 60.806C53.2995 61.6465 54.125 62.3127 54.7292 62.8047C55.3334 63.2989 55.7171 63.5967 55.8805 63.6982C57.3348 64.6821 58.6907 65.1741 59.9483 65.1741C60.0782 65.1741 60.2126 65.1697 60.3514 65.1609C60.4901 65.1498 60.6254 65.1344 60.7571 65.1145C61.1646 65.0528 61.5685 64.9402 61.969 64.777C62.3695 64.6115 62.7734 64.3953 63.1809 64.1284C64.1943 63.4732 64.7011 62.7043 64.7011 61.8219C64.7011 61.0409 64.276 60.4563 63.4259 60.068C63.1168 59.9026 62.7901 59.7889 62.4459 59.7272C62.1034 59.6654 61.7442 59.6345 61.3683 59.6345C59.7999 59.6345 58.1093 60.1993 56.2967 61.3288C56.2634 61.3487 56.2309 61.3641 56.1993 61.3751C56.1659 61.3862 56.1334 61.3917 56.1018 61.3917C55.9701 61.3917 55.9042 61.3398 55.9042 61.2362C55.9042 61.1744 55.9288 61.1336 55.978 61.1137C57.6448 59.7592 59.352 59.0819 61.0996 59.0819C62.0621 59.0819 62.9359 59.297 63.721 59.7272C64.7169 60.2809 65.2148 61.0817 65.2148 62.1296C65.2148 63.0121 64.8389 63.8945 64.0872 64.777C63.4338 65.494 62.7234 66.0168 61.9558 66.3455C61.6467 66.4691 61.3402 66.5662 61.0363 66.6368C60.7342 66.7096 60.4366 66.746 60.1432 66.746ZM55.4879 44.5545C55.8972 44.5545 56.2809 44.5347 56.6392 44.495C56.9993 44.4531 57.3427 44.3913 57.6694 44.3097C58.2894 44.1464 58.9217 43.9313 59.5663 43.6644C60.2126 43.3974 60.8704 43.0588 61.5396 42.6485C62.9605 41.766 64.0793 40.8119 64.896 39.786C64.3744 38.8837 63.7131 38.4325 62.9122 38.4325C62.5363 38.4325 62.0788 38.5759 61.5396 38.8627C61.4904 38.8826 61.4412 38.8925 61.392 38.8925C61.2779 38.8925 61.2208 38.8308 61.2208 38.7072C61.2208 38.4204 61.58 38.1645 62.2983 37.9395C62.5776 37.8358 62.8393 37.7685 63.0834 37.7376C63.3293 37.7089 63.5418 37.6946 63.721 37.6946C64.4885 37.6946 65.1498 37.9604 65.7048 38.4921C65.9332 37.9604 66.0473 37.4685 66.0473 37.0162C66.0473 36.0918 65.4756 35.6297 64.3322 35.6297C62.1771 35.6297 59.9395 36.8508 57.6193 39.2929C58.2235 40.1952 58.5256 40.7799 58.5256 41.0468C58.5256 41.1505 58.4606 41.2023 58.3306 41.2023C58.2165 41.2023 58.1181 41.1406 58.0356 41.017L57.203 39.7231C56.5988 40.4225 56.0315 41.167 55.5011 41.9568C54.9689 42.7466 54.4824 43.5827 54.0415 44.4652C54.5158 44.5248 54.9979 44.5545 55.4879 44.5545ZM51.8364 43.8795C52.899 41.7042 54.2795 39.8577 55.978 38.3399C54.4921 36.9434 52.9816 36.2452 51.4465 36.2452C50.6614 36.2452 50.008 36.4812 49.4864 36.9533C48.898 37.4674 48.6038 38.2064 48.6038 39.1705C48.6038 41.4075 49.6813 42.9772 51.8364 43.8795ZM55.8304 57.6358C57.5956 57.5541 59.352 56.5073 61.0996 54.4953C62.5363 52.854 63.7289 50.8541 64.6773 48.4958C65.3623 46.7927 65.7048 45.0895 65.7048 43.3864C65.7048 42.4642 65.5986 41.6645 65.386 40.9872C64.1776 42.4014 62.6013 43.5088 60.657 44.3097C58.8444 45.0289 57.0476 45.3885 55.2666 45.3885C54.9891 45.3885 54.716 45.3774 54.4473 45.3554C54.1768 45.3355 53.9116 45.3046 53.6516 45.2627C52.5082 47.7468 51.9365 50.0864 51.9365 52.2815C51.9365 55.5642 52.9491 57.339 54.9742 57.606C56.3459 56.0462 57.0397 54.7016 57.0555 53.5721C56.7938 54.2714 56.3942 54.6211 55.8568 54.6211C55.5775 54.6211 55.3483 54.4975 55.1692 54.2505C54.99 53.9637 54.9004 53.646 54.9004 53.2974C54.9004 52.7437 55.0471 52.3025 55.3404 51.9737C55.6671 51.6031 56.043 51.4178 56.468 51.4178C57.3831 51.4178 57.8406 52.105 57.8406 53.4794C57.8406 54.6906 57.1705 56.076 55.8304 57.6358ZM47.6237 61.7888C48.7021 61.7888 49.7639 61.5119 50.8089 60.9582C49.6971 59.9941 48.7742 59.5121 48.04 59.5121C47.5991 59.5121 47.1662 59.6147 46.7411 59.8198C46.1861 60.0868 45.9086 60.4464 45.9086 60.8986C45.9086 61.4921 46.4803 61.7888 47.6237 61.7888Z" fill="black"/>
<path d="M68.1076 56.4345C67.2909 56.4345 66.6612 56.1267 66.2186 55.5112C65.8603 54.9994 65.6812 54.3839 65.6812 53.6647C65.6812 52.619 65.942 52.0961 66.4636 52.0961C66.6603 52.0961 66.8404 52.1888 67.0037 52.3741C67.1671 52.5793 67.2487 52.8153 67.2487 53.0823C67.2487 53.2455 67.2162 53.3779 67.1513 53.4794C66.9387 53.8081 66.8325 54.1677 66.8325 54.5582C66.8325 54.9487 66.9308 55.2663 67.1275 55.5112C67.3383 55.7782 67.607 55.9116 67.9337 55.9116C68.278 55.9116 68.5889 55.7682 68.8664 55.4814C69.2422 55.0512 69.4302 54.4567 69.4302 53.6978C69.4302 53.0404 69.2914 52.3013 69.0139 51.4806C68.8997 51.2755 68.7645 51.0085 68.6082 50.6798C68.4536 50.3511 68.278 49.9617 68.0812 49.5117C67.9671 49.2646 67.8898 49.0131 67.8494 48.7572C67.809 48.5013 67.7888 48.2498 67.7888 48.0027C67.7888 47.1401 68.0417 46.4529 68.5476 45.941C69.071 45.4072 69.741 45.1402 70.5578 45.1402C70.7861 45.1402 71.01 45.1711 71.2296 45.2329C71.4509 45.2946 71.6511 45.4072 71.8303 45.5704C72.2061 45.919 72.3941 46.3503 72.3941 46.8643C72.3941 47.0893 72.3616 47.2945 72.2966 47.4798C72.149 48.0137 71.8303 48.2806 71.3402 48.2806C70.801 48.2806 70.5314 47.9321 70.5314 47.2349C70.5314 47.0298 70.556 46.8544 70.6052 46.7088C70.6544 46.5036 70.8344 46.2984 71.1453 46.0933C71.0311 45.8285 70.8186 45.6962 70.5077 45.6962C70.2302 45.6962 70.0256 45.7778 69.8938 45.941C69.5022 46.3712 69.3063 46.915 69.3063 47.5725C69.3063 48.0225 69.4047 48.5145 69.6014 49.0484C69.633 49.13 69.9518 49.7764 70.5578 50.9876C70.9652 51.8082 71.169 52.4954 71.169 53.0492C71.169 53.9316 70.8423 54.7115 70.1889 55.3888C69.5355 56.0859 68.8418 56.4345 68.1076 56.4345ZM74.1065 56.3153C72.914 56.3153 72.3177 55.402 72.3177 53.5753C72.3177 52.673 72.4889 51.7189 72.8314 50.7129C73.3214 49.2568 74.0161 48.0258 74.9153 47.0198C75.797 46.0359 76.6305 45.5439 77.4156 45.5439C78.6239 45.5439 79.2281 46.4363 79.2281 48.2211C79.2281 49.1454 79.0481 50.1205 78.6881 51.1464C78.263 52.3774 77.6509 53.4948 76.8518 54.4986C75.8541 55.7098 74.9391 56.3153 74.1065 56.3153ZM74.4991 55.637C74.875 55.637 75.2754 55.4428 75.7005 55.0545C76.2379 54.5626 76.85 53.5367 77.5368 51.977C78.2885 50.2937 78.6643 48.9392 78.6643 47.9133C78.6643 46.9912 78.3535 46.5301 77.7317 46.5301C77.2417 46.5301 76.6867 46.9195 76.0667 47.6982C75.4625 48.4571 74.9478 49.4212 74.5228 50.5905C73.952 52.1303 73.6666 53.3613 73.6666 54.2835C73.6666 55.1858 73.9441 55.637 74.4991 55.637ZM80.8959 56.2823C79.8508 56.2823 79.3283 55.6667 79.3283 54.4357C79.3283 54.0033 79.4266 53.4231 79.6233 52.6951C79.8183 51.9671 80.0958 51.1001 80.4559 50.0941L81.8021 46.3712C81.9497 45.941 82.2685 45.7259 82.7585 45.7259H84.2286C83.656 46.2598 83.1335 47.1213 82.661 48.3104C82.4801 48.7627 82.2632 49.3219 82.0103 49.9882C81.7574 50.6544 81.4675 51.4189 81.1409 52.2814C80.83 53.0801 80.6745 53.7982 80.6745 54.4357C80.6745 55.0909 80.8546 55.4186 81.2146 55.4186C81.6063 55.4186 82.0718 55.0292 82.611 54.2504C83.5102 52.9378 84.7195 50.3114 86.2388 46.3712C86.4179 45.941 86.7279 45.7259 87.1688 45.7259H88.4913C87.9521 46.2797 87.3883 47.2956 86.7999 48.7737C85.9832 50.8453 85.4932 52.4248 85.3298 53.5125C85.314 53.636 85.3017 53.7485 85.2929 53.85C85.2859 53.9537 85.2824 54.0563 85.2824 54.1578C85.2824 54.9586 85.5028 55.359 85.9437 55.359C86.4179 55.359 86.9729 54.7744 87.6088 53.6051L87.9776 53.8202C87.0959 55.4616 86.2221 56.2823 85.3562 56.2823C84.4411 56.2823 83.9836 55.5531 83.9836 54.0949C83.9836 53.5411 84.0652 52.9565 84.2286 52.341C83.0202 54.9685 81.9093 56.2823 80.8959 56.2823ZM87.9038 56.5271C88.2305 55.5211 88.6389 54.2802 89.1289 52.8043C89.6189 51.3262 90.2152 49.6231 90.9178 47.6949C91.0653 47.2846 91.2041 46.9459 91.3341 46.679C91.464 46.412 91.5861 46.2069 91.7003 46.0635C91.9303 45.7767 92.2245 45.6333 92.5828 45.6333H92.7541C92.8366 45.6333 92.9517 45.6542 93.0992 45.6962C93.3275 45.716 93.4988 45.716 93.6129 45.6962C93.0087 46.1462 92.1025 48.1361 90.8941 51.6659C91.089 51.3174 91.3542 50.9324 91.6897 50.511C92.0234 50.0897 92.4195 49.6231 92.8779 49.1112C93.1712 48.7627 93.4979 48.4296 93.858 48.1119C94.2163 47.792 94.6079 47.4886 95.033 47.2018C95.9972 46.5246 96.7077 46.1859 97.1644 46.1859C97.2785 46.1859 97.3602 46.197 97.4094 46.219C97.1494 46.7926 96.9088 47.3463 96.6875 47.8802C96.4662 48.4141 96.2581 48.9171 96.0631 49.3892C95.1147 51.6858 94.5833 53.2753 94.4692 54.1578C94.4534 54.3012 94.4411 54.4346 94.4323 54.5582C94.4253 54.6817 94.4218 54.7942 94.4218 54.8957C94.4218 55.4296 94.5763 55.6965 94.8855 55.6965C95.3931 55.6965 95.9981 55.0501 96.7007 53.7573L97.0432 54.0651C96.2106 55.6447 95.3693 56.4345 94.5192 56.4345C93.49 56.4345 92.9754 55.7682 92.9754 54.4357C92.9754 53.3481 93.5067 51.7376 94.5693 49.6043C94.7326 49.2756 94.8143 48.9987 94.8143 48.7737C94.8143 48.5266 94.7239 48.4031 94.5429 48.4031C94.3638 48.4031 94.1311 48.5211 93.8448 48.7572C93.5585 48.9932 93.2195 49.3363 92.8278 49.7863C92.2078 50.5055 91.6282 51.3626 91.089 52.3576C90.5498 53.3525 90.0598 54.4865 89.6189 55.7594C89.5206 56.0661 89.2677 56.2503 88.8602 56.312C88.3368 56.3738 88.018 56.4455 87.9038 56.5271ZM104.149 56.3153C103.2 56.3153 102.726 55.5564 102.726 54.0386C102.726 53.3812 102.816 52.7657 102.997 52.1921C101.771 54.899 100.595 56.2525 99.4696 56.2525C99.4029 56.2525 99.337 56.2481 99.272 56.2392C99.207 56.2282 99.1333 56.2128 99.0507 56.1929C98.234 55.9061 97.8257 55.1262 97.8257 53.8533C97.8257 52.9091 98.0303 51.8623 98.4395 50.7129C98.6362 50.1592 98.8522 49.6308 99.0876 49.1278C99.3247 48.627 99.5908 48.1604 99.8859 47.728C100.915 46.1705 102.091 45.3917 103.414 45.3917C104.002 45.3917 104.549 45.5759 105.055 45.9444C105.332 45.2671 105.664 44.3184 106.048 43.0985C106.431 41.8763 106.875 40.3937 107.381 38.6509C107.578 37.9736 107.783 37.5324 107.995 37.3272C108.239 37.1221 108.566 37.0294 108.975 37.0493L109.489 37.1419C109.603 37.1618 109.701 37.1772 109.784 37.1882C109.865 37.1993 109.939 37.1938 110.005 37.1717C109.842 37.3989 109.539 38.0299 109.096 39.0646C108.656 40.1014 108.084 41.5531 107.381 43.4194C106.663 45.3079 106.055 46.9912 105.558 48.4693C105.059 49.9452 104.663 51.196 104.37 52.2219C104.124 53.0845 104.001 53.8335 104.001 54.4688C104.001 55.166 104.189 55.5145 104.565 55.5145C105.055 55.5145 105.577 54.9509 106.132 53.8235L106.23 53.668L106.622 53.9162L106.525 54.0684C105.773 55.5664 104.981 56.3153 104.149 56.3153ZM99.7146 55.3921C100.252 55.3921 100.905 54.7258 101.675 53.3933C102.491 51.9351 103.577 49.6164 104.931 46.4374C104.736 46.1903 104.5 46.0668 104.222 46.0668C103.551 46.0668 102.767 46.6316 101.87 47.7611C101.02 48.8068 100.309 50.0069 99.7383 51.3615C99.2799 52.4271 99.0507 53.3602 99.0507 54.1611C99.0507 54.9817 99.272 55.3921 99.7146 55.3921Z" fill="black"/>
<path d="M28.6678 83.6923H26.8816V79.1422H28.6678V79.6584H27.34V80.628H28.3859V81.1443H27.34V83.1761H28.6678V83.6923ZM31.8267 83.6923H30.1116V79.1422H30.5726V83.1761H31.8267V83.6923ZM35.0093 83.6923H33.223V79.1422H35.0093V79.6584H33.6814V80.628H34.73V81.1443H33.6814V83.1761H35.0093V83.6923ZM37.462 83.8479H37.4541L35.9946 79.1455H36.4794L37.333 81.8855C37.3593 81.9738 37.3839 82.0576 37.4067 82.137C37.4296 82.2165 37.4515 82.308 37.4726 82.4117C37.4937 82.308 37.5156 82.2165 37.5384 82.137C37.5613 82.0576 37.5868 81.9738 37.6149 81.8855L38.4632 79.1455H38.919L37.462 83.8479ZM40.1967 83.6923H39.7331L41.269 78.99H41.2769L42.8102 83.6923H42.3228L41.896 82.3422H40.6288L40.1967 83.6923ZM41.0661 80.9623L40.7816 81.8624H41.7432L41.4561 80.9623C41.4227 80.8475 41.3893 80.735 41.356 80.6247C41.3243 80.5122 41.2927 80.3787 41.2611 80.2243C41.2277 80.3787 41.1961 80.5111 41.1663 80.6214C41.1382 80.7317 41.1048 80.8453 41.0661 80.9623ZM44.7388 79.6584H43.7745V79.1422H46.1641V79.6584H45.1972V83.6923H44.7388V79.6584ZM49.344 83.6923H47.5578V79.1422H49.344V79.6584H48.0162V80.628H49.0621V81.1443H48.0162V83.1761H49.344V83.6923ZM53.8043 83.6923H53.3459V81.495L52.2605 79.1422H52.79L53.3854 80.4659C53.4241 80.5519 53.4601 80.6358 53.4934 80.7174C53.5268 80.799 53.5611 80.8939 53.5962 81.002C53.6313 80.8939 53.6665 80.799 53.7016 80.7174L53.8096 80.4659L54.4103 79.1422H54.8924L53.8043 81.495V83.6923ZM57.7904 83.785C57.5305 83.785 57.2855 83.7232 57.0554 83.5997C56.8271 83.4761 56.626 83.3063 56.4521 83.0901C56.28 82.8761 56.1447 82.6257 56.0464 82.3389C55.948 82.0521 55.8988 81.7454 55.8988 81.4189C55.8988 81.0902 55.948 80.7836 56.0464 80.499C56.1447 80.2122 56.28 79.9607 56.4521 79.7445C56.626 79.5283 56.8271 79.3584 57.0554 79.2349C57.2855 79.1135 57.5305 79.0529 57.7904 79.0529C58.0539 79.0529 58.2998 79.1135 58.5281 79.2349C58.7565 79.3584 58.9567 79.5283 59.1288 79.7445C59.3027 79.9607 59.4379 80.2122 59.5345 80.499C59.6329 80.7836 59.6821 81.0902 59.6821 81.4189C59.6821 81.7454 59.6329 82.0521 59.5345 82.3389C59.4379 82.6257 59.3027 82.8761 59.1288 83.0901C58.9567 83.3063 58.7565 83.4761 58.5281 83.5997C58.2998 83.7232 58.0539 83.785 57.7904 83.785ZM57.7904 83.239C58.0557 83.239 58.2963 83.1574 58.5123 82.9941C58.7266 82.8286 58.8961 82.608 59.0208 82.3323C59.1455 82.0565 59.2078 81.7521 59.2078 81.4189C59.2078 81.0814 59.1455 80.7747 59.0208 80.499C58.8961 80.2254 58.7266 80.007 58.5123 79.8438C58.2963 79.6805 58.0557 79.5989 57.7904 79.5989C57.5252 79.5989 57.2855 79.6805 57.0712 79.8438C56.8587 80.007 56.6892 80.2254 56.5627 80.499C56.4363 80.7747 56.3731 81.0814 56.3731 81.4189C56.3731 81.7521 56.4363 82.0565 56.5627 82.3323C56.6892 82.608 56.8587 82.8286 57.0712 82.9941C57.2855 83.1574 57.5252 83.239 57.7904 83.239ZM62.2297 83.7552C62.0014 83.7552 61.7985 83.6923 61.6211 83.5666C61.4437 83.4408 61.305 83.2655 61.2049 83.0404C61.1047 82.8176 61.0547 82.5595 61.0547 82.2661V79.1455H61.5131V82.2462C61.5131 82.5463 61.5816 82.7867 61.7186 82.9676C61.8556 83.1507 62.0286 83.2423 62.2376 83.2423C62.4449 83.2423 62.617 83.1518 62.754 82.9709C62.8927 82.79 62.9621 82.5551 62.9621 82.2661V79.1455H63.4047V82.2462C63.4047 82.5419 63.3547 82.8033 63.2546 83.0305C63.1527 83.2577 63.0139 83.4353 62.8383 83.5633C62.6627 83.6912 62.4598 83.7552 62.2297 83.7552ZM65.5124 83.6923H65.054V79.1422H65.9629C66.1912 79.1422 66.3871 79.1996 66.5504 79.3143C66.7155 79.429 66.8429 79.5801 66.9324 79.7677C67.022 79.9552 67.0668 80.1592 67.0668 80.3799C67.0668 80.6291 67.0106 80.8542 66.8982 81.0549C66.7858 81.2535 66.6312 81.4002 66.4345 81.495L67.6517 83.6923H67.1142L65.9629 81.6009H65.5124V83.6923ZM65.5124 79.6584V81.1145H65.9629C66.1192 81.1145 66.2466 81.0781 66.3449 81.0053C66.4433 80.9325 66.5153 80.8398 66.561 80.7273C66.6084 80.6148 66.6321 80.499 66.6321 80.3799C66.6321 80.1681 66.5706 79.9949 66.4477 79.8603C66.3265 79.7257 66.1649 79.6584 65.9629 79.6584H65.5124ZM71.5614 83.7519C71.3471 83.7519 71.153 83.699 70.9791 83.5931C70.807 83.485 70.67 83.3526 70.5681 83.196L70.6999 82.501C70.7754 82.6886 70.8878 82.8584 71.0371 83.0107C71.1882 83.1629 71.3682 83.239 71.5772 83.239C71.7686 83.239 71.9267 83.1629 72.0514 83.0107C72.1761 82.8584 72.2385 82.6709 72.2385 82.4481C72.2385 82.287 72.2069 82.1547 72.1436 82.051C72.0822 81.9451 72.0128 81.8624 71.9355 81.8028C71.8582 81.741 71.7968 81.6969 71.7511 81.6704L71.3085 81.3858C71.2382 81.3395 71.1513 81.2744 71.0476 81.1906C70.944 81.1068 70.8536 80.9898 70.7763 80.8398C70.699 80.692 70.6604 80.5001 70.6604 80.264C70.6604 80.0346 70.7025 79.8305 70.7868 79.6518C70.8711 79.4731 70.9888 79.3341 71.1399 79.2349C71.2927 79.1334 71.4665 79.0827 71.6615 79.0827C71.8547 79.0827 72.0251 79.1257 72.1726 79.2117C72.3201 79.2977 72.4361 79.386 72.5204 79.4764L72.386 80.1747C72.3193 80.0335 72.22 79.9 72.0883 79.7743C71.9566 79.6507 71.8073 79.589 71.6404 79.589C71.4806 79.589 71.3524 79.6485 71.2558 79.7677C71.1592 79.8868 71.1109 80.0335 71.1109 80.2078C71.1109 80.3446 71.1355 80.456 71.1846 80.542C71.2338 80.6302 71.29 80.6997 71.3533 80.7505C71.4165 80.8012 71.4683 80.8398 71.5087 80.8663L71.9592 81.1509C72.0137 81.184 72.0813 81.2303 72.1621 81.2899C72.2446 81.3517 72.3263 81.4322 72.4071 81.5314C72.4879 81.6307 72.5546 81.7521 72.6073 81.8955C72.6618 82.0389 72.689 82.212 72.689 82.415C72.689 82.6731 72.6398 82.9037 72.5415 83.1066C72.4431 83.3096 72.3096 83.4673 72.141 83.5798C71.9724 83.6946 71.7792 83.7519 71.5614 83.7519ZM75.7583 83.785C75.4983 83.785 75.2533 83.7232 75.0232 83.5997C74.7949 83.4761 74.5938 83.3063 74.4199 83.0901C74.2478 82.8761 74.1125 82.6257 74.0142 82.3389C73.9158 82.0521 73.8666 81.7454 73.8666 81.4189C73.8666 81.0902 73.9158 80.7836 74.0142 80.499C74.1125 80.2122 74.2478 79.9607 74.4199 79.7445C74.5938 79.5283 74.7949 79.3584 75.0232 79.2349C75.2533 79.1135 75.4983 79.0529 75.7583 79.0529C76.0217 79.0529 76.2676 79.1135 76.4959 79.2349C76.7243 79.3584 76.9245 79.5283 77.0966 79.7445C77.2705 79.9607 77.4058 80.2122 77.5024 80.499C77.6007 80.7836 77.6499 81.0902 77.6499 81.4189C77.6499 81.7454 77.6007 82.0521 77.5024 82.3389C77.4058 82.6257 77.2705 82.8761 77.0966 83.0901C76.9245 83.3063 76.7243 83.4761 76.4959 83.5997C76.2676 83.7232 76.0217 83.785 75.7583 83.785ZM75.7583 83.239C76.0235 83.239 76.2641 83.1574 76.4802 82.9941C76.6944 82.8286 76.8639 82.608 76.9886 82.3323C77.1133 82.0565 77.1757 81.7521 77.1757 81.4189C77.1757 81.0814 77.1133 80.7747 76.9886 80.499C76.8639 80.2254 76.6944 80.007 76.4802 79.8438C76.2641 79.6805 76.0235 79.5989 75.7583 79.5989C75.4931 79.5989 75.2533 79.6805 75.039 79.8438C74.8265 80.007 74.657 80.2254 74.5306 80.499C74.4041 80.7747 74.3409 81.0814 74.3409 81.4189C74.3409 81.7521 74.4041 82.0565 74.5306 82.3323C74.657 82.608 74.8265 82.8286 75.039 82.9941C75.2533 83.1574 75.4931 83.239 75.7583 83.239ZM80.1975 83.7552C79.9692 83.7552 79.7663 83.6923 79.5889 83.5666C79.4115 83.4408 79.2728 83.2655 79.1727 83.0404C79.0726 82.8176 79.0225 82.5595 79.0225 82.2661V79.1455H79.4809V82.2462C79.4809 82.5463 79.5494 82.7867 79.6864 82.9676C79.8234 83.1507 79.9964 83.2423 80.2055 83.2423C80.4127 83.2423 80.5848 83.1518 80.7218 82.9709C80.8606 82.79 80.93 82.5551 80.93 82.2661V79.1455H81.3726V82.2462C81.3726 82.5419 81.3225 82.8033 81.2224 83.0305C81.1205 83.2577 80.9817 83.4353 80.8061 83.5633C80.6305 83.6912 80.4276 83.7552 80.1975 83.7552ZM85.9831 79.1422V83.8446L83.4486 80.4328V83.6923H83.0139V78.99L85.5484 82.4051V79.1422H85.9831ZM88.8785 83.6923H87.6903V79.1422H88.8785C89.2051 79.1422 89.4897 79.2095 89.7321 79.3441C89.9762 79.4786 90.1773 79.6573 90.3354 79.8802C90.4935 80.103 90.6111 80.3479 90.6884 80.6148C90.7675 80.8839 90.807 81.152 90.807 81.4189C90.807 81.6837 90.7675 81.9506 90.6884 82.2198C90.6111 82.4867 90.4935 82.7316 90.3354 82.9544C90.1773 83.1772 89.9762 83.3559 89.7321 83.4905C89.4897 83.6251 89.2051 83.6923 88.8785 83.6923ZM88.1487 79.6584V83.1761H88.8284C89.1077 83.1761 89.343 83.1221 89.5345 83.014C89.7242 82.9037 89.8778 82.7603 89.9955 82.5838C90.115 82.4073 90.2002 82.2153 90.2511 82.008C90.3038 81.8028 90.3301 81.6065 90.3301 81.4189C90.3301 81.2292 90.3038 81.0318 90.2511 80.8266C90.2002 80.6214 90.115 80.4295 89.9955 80.2508C89.8778 80.0743 89.7242 79.932 89.5345 79.8239C89.343 79.7136 89.1077 79.6584 88.8284 79.6584H88.1487ZM95.9391 83.6923H94.1529V79.1422H95.9391V79.6584H94.6113V80.628H95.6572V81.1443H94.6113V83.1761H95.9391V83.6923ZM97.4382 83.6923H96.9034L98.3577 81.0549L97.3144 79.1422H97.8571L98.3445 80.0522C98.3954 80.1471 98.4455 80.2442 98.4947 80.3435C98.5421 80.4427 98.5904 80.553 98.6396 80.6744C98.687 80.553 98.7353 80.4427 98.7845 80.3435C98.8319 80.2442 98.8811 80.1471 98.932 80.0522L99.4273 79.1422H99.9463L98.9057 81.0318L100.357 83.6923H99.7988L98.9847 82.1767C98.9285 82.0686 98.8706 81.9583 98.8108 81.8458C98.7529 81.7333 98.6905 81.5976 98.6238 81.4388C98.5553 81.5976 98.492 81.7333 98.4341 81.8458C98.3744 81.9583 98.3164 82.0686 98.2602 82.1767L97.4382 83.6923ZM102.041 83.6923H101.582V79.1422H102.478C102.717 79.1422 102.919 79.1874 103.084 79.2779C103.249 79.3706 103.383 79.4897 103.485 79.6353C103.586 79.7831 103.661 79.9419 103.709 80.1118C103.756 80.2839 103.78 80.4527 103.78 80.6181C103.78 80.7814 103.757 80.9479 103.711 81.1178C103.665 81.2899 103.592 81.4509 103.49 81.6009C103.388 81.7488 103.254 81.8679 103.087 81.9583C102.92 82.0488 102.717 82.094 102.478 82.094H102.041V83.6923ZM102.041 79.6584V81.5778H102.454C102.672 81.5778 102.844 81.5303 102.971 81.4355C103.097 81.3384 103.187 81.2171 103.24 81.0715C103.294 80.9237 103.321 80.7725 103.321 80.6181C103.321 80.4703 103.295 80.3225 103.242 80.1747C103.189 80.0269 103.101 79.9033 102.976 79.8041C102.851 79.707 102.678 79.6584 102.454 79.6584H102.041ZM106.962 83.6923H105.176V79.1422H106.962V79.6584H105.634V80.628H106.68V81.1443H105.634V83.1761H106.962V83.6923ZM108.88 83.6923H108.422V79.1422H109.331C109.559 79.1422 109.755 79.1996 109.918 79.3143C110.082 79.429 110.208 79.5801 110.298 79.7677C110.389 79.9552 110.435 80.1592 110.435 80.3799C110.435 80.6291 110.378 80.8542 110.266 81.0549C110.152 81.2535 109.997 81.4002 109.802 81.495L111.017 83.6923H110.482L109.331 81.6009H108.88V83.6923ZM108.88 79.6584V81.1145H109.331C109.487 81.1145 109.613 81.0781 109.71 81.0053C109.808 80.9325 109.881 80.8398 109.929 80.7273C109.976 80.6148 110 80.499 110 80.3799C110 80.1681 109.938 79.9949 109.815 79.8603C109.694 79.7257 109.533 79.6584 109.331 79.6584H108.88ZM112.748 83.6923H112.289V79.1422H112.748V83.6923ZM116.294 83.6923H114.508V79.1422H116.294V79.6584H114.966V80.628H116.012V81.1443H114.966V83.1761H116.294V83.6923ZM120.709 79.1422V83.8446L118.172 80.4328V83.6923H117.738V78.99L120.275 82.4051V79.1422H120.709ZM124.045 83.785C123.785 83.785 123.54 83.7232 123.31 83.5997C123.08 83.4761 122.879 83.3063 122.706 83.0901C122.533 82.8761 122.397 82.6257 122.301 82.3389C122.202 82.0521 122.153 81.7454 122.153 81.4189C122.153 81.0902 122.202 80.7836 122.301 80.499C122.397 80.2122 122.533 79.9607 122.706 79.7445C122.879 79.5283 123.08 79.3584 123.31 79.2349C123.54 79.1135 123.785 79.0529 124.045 79.0529C124.303 79.0529 124.544 79.1124 124.769 79.2316C124.994 79.3507 125.193 79.515 125.365 79.7246L125.233 80.4229C125.108 80.1736 124.942 79.9739 124.735 79.8239C124.528 79.6739 124.298 79.5989 124.045 79.5989C123.78 79.5989 123.54 79.6805 123.326 79.8438C123.113 80.007 122.944 80.2254 122.817 80.499C122.691 80.7747 122.627 81.0814 122.627 81.4189C122.627 81.7521 122.691 82.0565 122.817 82.3323C122.944 82.608 123.113 82.8286 123.326 82.9941C123.54 83.1574 123.78 83.239 124.045 83.239C124.299 83.239 124.53 83.1629 124.738 83.0107C124.943 82.8584 125.108 82.6599 125.233 82.415L125.365 83.1099C125.193 83.3173 124.994 83.4817 124.769 83.603C124.544 83.7243 124.303 83.785 124.045 83.785ZM128.524 83.6923H126.737V79.1422H128.524V79.6584H127.196V80.628H128.242V81.1443H127.196V83.1761H128.524V83.6923Z" fill="#F1EDE9"/>
<path d="M2.70605 46.8975H15.0427ZM137.96 48.3072H150.297Z" fill="black"/>
<path d="M2.70605 46.8975H15.0427M137.96 48.3072H150.297" stroke="black" stroke-width="1.58144"/>
</svg>
